<svg viewBox="0 0 64 64" xmlns="http://www.w3.org/2000/svg" role="img" aria-label="GitHub logo">
  <rect width="64" height="64" rx="14" fill="#0B0F19" opacity="0.9" />
  <g transform="translate(12 12)">
    <circle cx="20" cy="20" r="20" fill="#181717" />
    <path
      fill="#FFFFFF"
      d="M20 5.5c-8 0-14.5 6.5-14.5 14.5 0 6.4 4.1 11.9 9.9 13.9v-3.9c-2.2.5-2.8-.9-2.8-.9-.4-1.2-1-1.5-1-1.5-.9-.6.1-.6.1-.6 1 .1 1.6 1.1 1.6 1.1.9 1.6 2.5 1.1 3 .8.1-.7.4-1.1.7-1.4-2.7-.3-5.6-1.3-5.6-6 0-1.3.5-2.5 1.2-3.3-.1-.3-.5-1.5.1-3.1 0 0 1-.3 3.3 1.2a10.6 10.6 0 0 1 6.2 0c2.2-1.5 3.2-1.2 3.2-1.2.6 1.6.2 2.8.1 3.1.7.8 1.2 2 1.2 3.3 0 4.7-2.9 5.6-5.6 5.9.5.4.8 1 .8 1.9v3c5.8-2 9.9-7.5 9.9-13.9C34.5 12 28 5.5 20 5.5z"
    />
  </g>
</svg>
