<svg viewBox="0 0 64 64" xmlns="http://www.w3.org/2000/svg" role="img" aria-label="Google Cloud logo">
  <rect width="64" height="64" rx="14" fill="#0B0F19" opacity="0.9" />
  <g transform="translate(6 8)">
    <path d="M25.5 10.5c3.2-3.5 7.9-5.5 12.9-5.5 7.8 0 14.5 5.4 16.1 12.7l-7.6 1.7c-.8-3.6-4-6.2-7.9-6.2-2.7 0-4.8 1.2-6.3 2.8l-7.2-5.5z" fill="#4285F4"/>
    <path d="M53 24.2c0-1.6-.2-3.1-.7-4.6l-7.6 1.7c.2.8.3 1.7.3 2.6 0 4.8-3.6 8.3-8.5 8.3H26v8.7h10.5C45.8 40.9 53 33.7 53 24.2z" fill="#34A853"/>
    <path d="M19.7 41 11.6 33l5.8-5.8 8.1 8V49a18.5 18.5 0 0 1-5.8-8z" fill="#188038" />
    <path d="M11.6 33 3.4 24.8A18.7 18.7 0 0 1 25.5 10.5l7.2 5.5c-1.3 1.4-2.1 3.3-2.1 5.4 0 2.8 1.4 5.3 3.5 6.9l-8.1 7.9-14.4-3.2z" fill="#EA4335"/>
    <path d="M41.5 21.3c.5.7.9 1.8.9 3 0 3-2.3 5.3-5.4 5.3H26c0 3.5 2.8 6.3 6.3 6.3H37c4.9 0 8.5-3.5 8.5-8.3 0-2.1-.5-3.8-1.5-5.3l-2.5-1z" fill="#FBBC05"/>
  </g>
</svg>
