<svg viewBox="0 0 64 64" xmlns="http://www.w3.org/2000/svg" role="img" aria-label="n8n logo">
  <rect width="64" height="64" rx="14" fill="#0B0F19" opacity="0.9" />
  <rect x="9" y="15" width="18" height="18" rx="6" fill="#FFEEE9" opacity="0.08" />
  <rect x="37" y="31" width="18" height="18" rx="6" fill="#FFEEE9" opacity="0.08" />
  <path
    d="M16.5 24c0-4.4 3.6-8 8-8h7.4c4.4 0 8 3.6 8 8v6c0 4.4-3.6 8-8 8h-4.3l-5.6 5.5"
    fill="none"
    stroke="#F05A4E"
    stroke-width="3.4"
    stroke-linecap="round"
    stroke-linejoin="round"
  />
  <path
    d="M47.5 40c0 4.4-3.6 8-8 8h-7.4c-4.4 0-8-3.6-8-8v-6c0-4.4 3.6-8 8-8h4.3l5.6-5.5"
    fill="none"
    stroke="#F05A4E"
    stroke-width="3.4"
    stroke-linecap="round"
    stroke-linejoin="round"
  />
  <circle cx="18.5" cy="22.5" r="4.4" fill="#F05A4E" />
  <circle cx="45.5" cy="41.5" r="4.4" fill="#F05A4E" />
  <circle cx="32" cy="32" r="4.6" fill="#F05A4E" opacity="0.15" />
</svg>
