<svg viewBox="0 0 64 64" xmlns="http://www.w3.org/2000/svg" role="img" aria-label="PostgreSQL logo">
  <rect width="64" height="64" rx="14" fill="#0B0F19" opacity="0.9" />
  <g transform="translate(9 8)">
    <path
      d="M24 4c-9 0-16 5.8-16 14.9 0 1.7.2 3 .2 3s-4.5-.4-4.5 4.2c0 2.8 1.8 4.3 4 4.7l1.5.2v5.5c0 4.2 3 7.9 6.9 8.9l5 1.3c2.5.7 4.2 3 4.2 5.6v2.7l6.6-2.4v-8.7l2 .3c3 .4 5.6-1.9 5.6-5v-3.5c2-.7 3.5-2.7 3.5-5 0-3-2-4.8-3.9-5.2-2.5-.5-3.4-.9-3.4-.9s.1-1.5.1-3C35.8 9.3 31 4 24 4z"
      fill="#336791"
      stroke="#1A4F76"
      stroke-width="1.6"
      stroke-linejoin="round"
    />
    <path
      d="M18.5 14.8c2 3.4 4.8 5 8.7 5 4 0 6.9-1.7 8.9-5"
      fill="none"
      stroke="#FFFFFF"
      stroke-width="2"
      stroke-linecap="round"
    />
    <path
      d="M18 22.5c0 4.3 3.4 7.8 7.8 7.8 4.3 0 7.8-3.5 7.8-7.8"
      fill="none"
      stroke="#FFFFFF"
      stroke-width="2"
      stroke-linecap="round"
    />
    <path
      d="M16.5 18s-1.6 3.3-1.6 8.1c0 4.7 4.3 10 8.6 10.8 3.2.6 7-.7 8.9-2.6"
      fill="none"
      stroke="#FFFFFF"
      stroke-width="1.8"
      stroke-linecap="round"
    />
    <path
      d="M32 18s1.6 3.3 1.6 8.1c0 1.8-.3 3.6-.9 5.1"
      fill="none"
      stroke="#FFFFFF"
      stroke-width="1.8"
      stroke-linecap="round"
    />
    <ellipse cx="24" cy="21.5" rx="2.6" ry="3.3" fill="#FFFFFF" stroke="#1A4F76" stroke-width="1" />
    <circle cx="23.2" cy="20.8" r="0.7" fill="#1A4F76" />
    <circle cx="24.8" cy="20.8" r="0.7" fill="#1A4F76" />
    <path d="M24 24.6c-1.4 0-2.4.6-2.4 2v3.3c0 1 .6 1.9 1.6 2.2l3.4 1.1" fill="none" stroke="#1A4F76" stroke-width="1.3" stroke-linecap="round" />
    <path d="M25.8 31.6c1 0 2-.7 2-2v-2.5c0-1.1-.7-1.9-1.8-2" fill="none" stroke="#1A4F76" stroke-width="1.3" stroke-linecap="round" />
  </g>
</svg>
