<svg viewBox="0 0 64 64" xmlns="http://www.w3.org/2000/svg" role="img" aria-label="Stripe logo">
  <rect width="64" height="64" rx="14" fill="#635BFF" />
  <path
    fill="#FFFFFF"
    d="M23.2 16.1c-1.7-.3-3.5-.5-5.5-.5-5.5 0-9.3 2.9-9.3 8 0 7.9 10.9 8.4 10.9 12.7 0 1.5-1.2 2.1-3 2.1-2.3 0-5.3-.8-7.8-2l-1.4 5.4c2.1 1 6 2 9.8 2 6.2 0 9.6-3 9.6-8.1 0-8.5-10.9-8.9-10.9-12.7 0-1 .8-2 2.8-2 2 0 4.5.7 6.3 1.5l1.5-5.4zm13.7-3.8c-2.2 0-3.6 1-4.4 2l-.3-1.6h-6.2v30.8l7-1.2V29c1 1 2.5 1.6 4.5 1.6 4.3 0 8-3.5 8-9.3 0-6.2-3.8-9-8.6-9zm-1.4 13c-1.5 0-2.6-.5-3.3-1.1v-7c.7-.8 1.7-1.2 3.2-1.2 2.5 0 4.2 1.4 4.2 4.7 0 3.1-1.7 4.6-4.1 4.6zm-21-11.3-7 1.2v23.5l7-1.2V14zm-3.5-6.7-7.3 1.3-.4 5.2-5 1V21l5-.9v11.6c0 6.5 3.8 7.8 9 6.5v-5.5c-3 .6-3.7-.8-3.7-3.5V19l3.7-.6v-6zm34.7 7.6c-.5 0-1 .1-1.5.2l-1.2-7.5-6.7 1.2 1 5.6c-.6.2-1.3.4-1.9.7l-1-5.8-6.7 1.2L47 32.4h7.2V22.1c1.4-.7 3.1-1.1 4.5-1.1V12z"
  />
</svg>
